<?xml version="1.0" encoding="UTF-8"?> <!-- Generator: Adobe Illustrator 25.3.1, SVG Export Plug-In . SVG Version: 6.00 Build 0) --> <svg xmlns="http://www.w3.org/2000/svg" xmlns:xlink="http://www.w3.org/1999/xlink" id="Слой_1" x="0px" y="0px" viewBox="0 0 1920 600" style="enable-background:new 0 0 1920 600;" xml:space="preserve"> <style type="text/css"> .st0{fill:#002664;} .st1{fill:#698DB5;} .st2{fill:#7D99BE;} .st3{fill:#9C0C26;} .st4{fill:#21211F;} .st5{fill:#20201F;} .st6{fill:#095083;} .st7{fill:#3B3A39;} .st8{fill:#1F1F1D;} .st9{fill:#1E1E1C;} .st10{fill:#7595BA;} .st11{fill:#242422;} .st12{fill:#888787;} .st13{fill:#383837;} .st14{fill:#7093B9;} .st15{fill:#3E4247;} .st16{fill:#1D1D1B;} .st17{fill:#00497E;} .st18{fill:#2E2E2C;} </style> <g> <g> <path class="st0" d="M7.5,282.46c0.98-0.66,2.1-0.59,3.21-0.59c9.67,0.01,19.34,0.01,29.01,0.01c2.35,0,2.76-0.63,2.76,2.91 c-0.02,18.6,0.06,37.2-0.05,55.79c-0.04,6.44,1.27,5.17,5.07,5.19c8.55,0.03,17.11,0.02,25.67,0.01c4.36-0.01,4.38-0.02,4.38-4.31 c0.01-18.23,0-36.45,0-54.68c0-0.99,0.02-1.98,0.01-2.98c-0.01-1.15,0.41-1.84,1.69-1.96c1.16-0.1,1.97,0.25,2.29,1.36 c0.61,2.12,1.18,4.26,1.73,6.4c4.51,17.6,9.01,35.2,13.5,52.8c0.84,3.3,0.83,3.34,4.1,3.35c8.31,0.02,16.61,0.03,24.92,0 c2.9-0.01,2.98-0.04,3.73-2.95c3.24-12.48,6.44-24.97,9.64-37.46c1.8-7.01,3.54-14.03,5.41-21.02c0.22-0.84,0.22-2.04,1.38-2.43 c1.71-0.58,2.85,0.17,2.87,2c0.04,4.34,0.01,8.68,0.01,13.02c0,14.51,0,29.01,0,43.52c0,0.62-0.01,1.24,0,1.86 c0.07,3.19,0.27,3.43,3.35,3.45c4.71,0.04,9.42,0.01,14.13,0.02c1.98,0,3.98,0.12,5.95-0.04c1.87-0.15,2.87,0.53,3.71,2.24 c2.89,5.88,6.23,11.5,9.94,16.91c3.57,5.21,7.34,10.25,11.45,15.05c0.88,1.03,1.68,1.57,3.07,1.56 c12.03-0.08,24.05-0.09,36.08-0.12c-0.48,1.42-1.67,0.7-2.49,0.71c-10.97,0.05-21.94,0.03-32.91,0.06c-0.69,0-1.58-0.46-2.15,0.6 c0.49,0.11,0.95,0.22,1.41,0.33c3.88,4.82,8.4,9.03,13.02,13.09c9.56,8.39,20,15.55,31.2,21.59c0.85,0.09,1.7,0.18,2.55,0.26 c-0.34,1.29,0.8,1.36,1.48,1.7c4.84,2.4,9.8,4.56,14.88,6.43c10.28,3.76,20.77,6.65,31.63,8.26c7.83,1.16,15.65,2.09,23.57,2.03 c1.15-0.01,2.47,0.53,3.44-0.62c1.89,0.46,3.79,0.75,5.76,0.67c1.19-0.05,2.45-0.3,3.58,0.53c0.32,0.24,1.03,0.27,1.4,0.08 c4.17-2.07,8.96-1.75,13.21-3.48c1.49,1.38,2.93,0.18,4.4-0.07c14.28-2.46,27.84-7.14,40.85-13.46c1.07-0.52,2.37-0.75,2.87-2.07 c0.96-0.56,2.47,0.66,3.12-0.94c10.55-5.74,20.42-12.49,29.44-20.4c4.82-4.22,9.57-8.57,13.55-13.64 c0.42-0.26,1.23,0.18,1.32-0.91c-6.43,0-12.81,0.03-19.2-0.03c-0.9-0.01-1.96,0.54-2.72-0.46c1.23-0.05,2.46-0.14,3.69-0.15 c5.57-0.02,11.14-0.04,16.7,0.02c1.34,0.01,2.3-0.3,3.2-1.36c10.33-12.2,18.84-25.54,25.38-40.13c0.43-0.97,1.2-1.94,0.71-3.15 c1.15,0,1.76-0.47,1.48-1.71c0.39-1.15,0.74-2.31,1.17-3.45c3.13-8.24,5.62-16.65,7.23-25.32c1.14,0.44,0.29,1.5,0.68,2.18 c-0.05,0.87,0.01,1.75-0.16,2.59c-1.43,6.85-2.6,13.74-4.28,20.55c-6.24,25.33-16.55,48.88-30.62,70.79 c-11.62,18.11-25.51,34.29-41.57,48.64c-16.04,14.33-33.68,26.27-52.93,35.79c-17.35,8.58-35.5,14.93-54.47,18.95 c-12.68,2.68-25.44,4.56-38.4,5.07c-7.99,0-15.98,0-23.97,0c-5.69-0.09-11.31-0.85-16.96-1.43c-8.1-0.82-16.1-2.27-23.99-4.08 c-17.64-4.05-34.66-9.99-50.92-18c-15.33-7.55-29.75-16.55-43.16-27.17c-12.27-9.72-23.47-20.54-33.62-32.42 c-8.36-9.79-15.87-20.21-22.48-31.26c-7.02-11.74-13.09-23.95-17.98-36.74c-4.48-11.72-8.16-23.66-10.77-35.92 c-1.89-8.91-3.29-17.89-4.09-26.98c-0.34-3.82-0.64-7.63-0.71-11.46c-0.02-1.01-0.11-2.02-1.39-2.28 C7.5,282.96,7.5,282.71,7.5,282.46z"></path> <path class="st1" d="M257.47,54.07c0,0.22,0.03,0.43,0.1,0.64c-8.01,0-16.01,0-24.02,0c0.07-0.2,0.1-0.42,0.11-0.63 C241.6,54.07,249.53,54.07,257.47,54.07z"></path> <path class="st2" d="M233.66,511.6c0.02-0.22-0.01-0.44-0.08-0.64c7.99,0,15.98,0,23.97,0c-0.07,0.21-0.1,0.42-0.08,0.64 C249.53,511.6,241.6,511.6,233.66,511.6z"></path> <path class="st0" d="M233.55,54.71c8.01,0,16.01,0,24.02,0c19.66,0.71,38.85,4.23,57.62,9.98c27.84,8.52,53.24,21.82,76.18,39.76 c14.58,11.4,27.65,24.33,39.22,38.81c10.53,13.17,19.54,27.25,27.13,42.29c8.51,16.86,14.75,34.55,18.99,52.92 c1.82,7.89,3.21,15.89,4.09,23.98c0.7,6.39,1.43,12.76,1.44,19.19c-0.75,1.58-2.18,0.81-3.27,0.81 c-13.44,0.06-26.88,0.03-40.33,0.04c-4.93,0.01-9.86,0.07-14.79,0.11c-1.37-0.28-2.51-0.94-3.62-2.08 c6.37-3.81,9.29-10.06,11.96-16.49c0.84-2.04,1.66-4.1,2.63-6.08c2.97-6.07,8.11-8.68,14.64-8.94c1.36-0.06,2.73,0.03,4.09-0.03 c2-0.1,2.63-0.64,3-2.58c0.14-0.72,0.11-1.48,0.11-2.22c0.01-6.94,0.02-13.88,0-20.82c-0.01-3.99-1.02-5.04-4.8-4.62 c-4.57,0.51-9.15,0.26-13.72,0.5c-6.41,0.33-12.74,1.09-18.91,2.97c-6.03,1.84-10.74,5.26-14,10.77 c-3.03,5.12-5.11,10.62-7.25,16.12c-1.7,4.36-3.44,8.7-5.71,12.81c-1.11,2.01-2.47,3.59-4.84,4.08c-0.64-1.34-0.34-2.6-0.35-3.81 c-0.02-12.27-0.01-24.54-0.01-36.81c0-1.12-0.02-2.23-0.03-3.35c-0.01-1.35-0.7-2.06-2.03-2.13c-0.62-0.04-1.24-0.02-1.86-0.02 c-11.28,0-22.56,0-33.84,0c-0.37,0-0.74-0.01-1.12,0c-2.42,0.12-2.81,0.49-2.93,2.8c-0.04,0.87-0.01,1.73-0.01,2.6 c0,18.22,0,36.44,0,54.66c0,4.68,0.21,3.74-3.68,3.82c-2.72,0.06-5.45,0.11-8.17,0.16c-0.64-1.82-2.23-1.37-3.58-1.49 c0.14-0.7,0.71-0.57,1.15-0.52c1.37,0.13,1.72-0.54,1.58-1.78c-0.53-4.65-0.81-9.35-1.59-13.96c-1.76-10.3-4.27-20.41-7.87-30.26 c-5.94-16.24-14.25-31.12-24.91-44.71c-12.28-15.65-26.97-28.57-43.98-38.85c-15.19-9.18-31.49-15.58-48.81-19.4 c-4.56-1.01-9.14-1.99-13.82-2.31c-0.67-0.04-1.53-0.35-1.79,0.72c-1.25-0.79-2.75-0.69-4.11-1.18 c-5.06-1.82-10.24-1.77-15.42-0.38c-1.06-0.89-2.33-0.48-3.51-0.56c-3.35-0.23-6.65,0.46-9.98,0.61 c-4.94,0.22-9.84,0.93-14.68,1.8c-10.52,1.9-20.83,4.71-30.75,8.76c-5.2,2.12-10.53,4.02-15.19,7.29 c-1.21,0.04-2.43,0.05-3.63,0.14c-1.07,0.08-0.91,0.89-0.86,1.61c-0.27,0.23-0.51,0.5-0.81,0.67 c-14.03,8.13-26.77,17.9-37.84,29.78c-0.82,0.88-1.84,1.62-2.28,2.81c-0.72,0.02-1.46-0.03-2.16,0.09 c-1.23,0.21-3.55-0.59-3.51,0.54c0.06,1.88,2.34,0.43,3.51,1.02c-3.52,4.6-7.15,9.11-10.54,13.8 c-6.43,8.9-11.71,18.45-16.08,28.52c-0.19,0.43-0.19,0.94-0.27,1.42c-1.47,0.05-2.93,0.09-4.4,0.14l-0.13-0.1 c1.5-6.72,3.82-13.2,6.22-19.62c7.03-18.77,16.27-36.4,27.77-52.84c10.33-14.76,22.16-28.2,35.51-40.28 c17.14-15.5,36.15-28.29,57.04-38.19c17.25-8.18,35.21-14.28,53.97-18.02c8.46-1.68,16.96-2.91,25.54-3.81 C226.66,55.02,230.11,54.9,233.55,54.71z"></path> <path class="st3" d="M47.11,341.41c0-39.25,0-78.11,0-117.19c1.52,0,2.86,0,4.2,0c12.27,0,24.54-0.04,36.81,0.06 c1.42,0.01,3.02-1.04,4.24,0.13c1.09,1.04,0.97,2.75,1.33,4.15c4.44,16.98,8.78,33.99,13.17,50.99 c1.32,5.11,2.67,10.21,3.99,15.32c0.12,0.48,0.1,1.01,0.3,1.44c0.4,0.89,0.77,1.83,2.07,1.78c1.15-0.04,1.86-0.52,2.17-1.62 c0.2-0.71,0.49-1.39,0.67-2.11c3.97-15.47,7.95-30.93,11.9-46.41c1.79-7.02,3.53-14.05,5.31-21.07c0.67-2.63,0.69-2.65,3.48-2.65 c11.28-0.01,22.56-0.02,33.84,0.01c2.81,0.01,5.64-0.64,8.54,0.27c0.57,0.63,0.3,1.54,0.3,2.38c0.01,37.06,0.01,74.12,0.01,111.18 c0,3.8,0.3,3.34-3.39,3.35c-6.44,0.02-12.89,0.02-19.33,0c-3.86-0.02-3.46,0.55-3.47-3.64c-0.02-6.44,0-12.89,0-19.34 c0-21.57,0-43.13,0-64.7c0-0.87,0.04-1.74-0.01-2.6c-0.08-1.25-0.67-2.13-1.99-2.25c-1.28-0.12-2.09,0.48-2.42,1.78 c-0.94,3.69-1.95,7.36-2.9,11.05c-5.82,22.71-11.63,45.43-17.45,68.14c-0.85,3.33-1.83,6.64-2.59,9.99 c-0.28,1.25-0.85,1.59-2.01,1.59c-7.06-0.03-14.13-0.03-21.19,0c-1.29,0-1.85-0.34-2.21-1.77c-3.88-15.48-7.9-30.93-11.86-46.4 c-3.53-13.8-7-27.61-10.55-41.4c-0.23-0.91-0.33-2-1.17-2.66c-1.41-1.09-3.67,0.08-3.61,2.09c0.06,1.85-0.1,3.67-0.1,5.51 c0.02,9.17-0.22,18.35,0.06,27.51c0.53,17.34,0.1,34.68,0.26,52.02c0.05,5.1,0,5.1-4.93,5.1 C61.51,341.41,54.45,341.41,47.11,341.41z"></path> <path class="st3" d="M265.54,343.5c-9.41,0.1-18.02-0.92-26.48-3.57c-11.91-3.73-20.73-11.15-27.21-21.61 c-4.62-7.46-6.89-15.66-8.04-24.32c-0.74-5.57-0.82-11.12-0.52-16.67c0.5-9.41,2.46-18.53,6.85-26.98 c6.95-13.39,17.98-21.97,32.37-25.64c16.44-4.2,33-4.08,49.13,1.92c15.83,5.88,25.76,17.33,30.53,33.36 c2.6,8.72,3.4,17.7,2.84,26.74c-0.53,8.35-1.53,16.63-4.81,24.51c-6.53,15.7-18.14,25.47-34.37,29.98 C278.98,343.1,271.99,343.69,265.54,343.5z M236.61,283.09c-0.25,5.25,0.23,10.65,1.51,15.96c1.88,7.8,5.9,14.05,13.18,17.88 c4.5,2.37,9.34,2.92,14.36,2.8c11.07-0.27,20.84-6.45,23.89-18.83c2.55-10.36,2.86-20.78,1.25-31.24 c-0.89-5.79-2.99-11.26-7.19-15.53c-7.76-7.89-17.31-9.53-27.63-6.87c-8.86,2.28-14.27,8.46-17.08,16.98 C236.91,270.28,236.39,276.54,236.61,283.09z"></path> <path class="st4" d="M329.82,282.41c1.35,0.12,2.94-0.33,3.58,1.49c-0.01,16.36-0.01,32.72-0.02,49.08c0,0.5,0.02,0.99,0,1.49 c-0.06,1.16,0.56,1.45,1.6,1.44c3.1-0.04,6.2,0,9.29-0.02c0.45,0,0.8,0.25,0.85,0.54c0.11,0.55-0.26,0.9-0.83,0.94 c-0.49,0.04-0.99,0.02-1.49,0.02c-2.97,0-5.95,0-8.9,0c-0.7,2.67-0.93,35.65-0.33,43.73c0.69,0.75,1.61,0.39,2.42,0.39 c6.69,0.03,13.38-0.02,20.08,0.03c3.24,0.02,2.82-0.29,3.57-2.52c3.42-10.28,6.39-20.68,8.72-31.26c0.1-0.47,0.3-0.93,0.52-1.36 c0.1-0.18,0.39-0.27,0.74-0.5c0.67,1.49,0.06,2.84-0.25,4.2c-2.35,10.08-5.05,20.05-8.46,29.82c-0.12,0.34-0.09,0.73-0.13,1.09 c0.83,0.89,1.88,0.5,2.82,0.51c8.06,0.03,16.11-0.09,24.17,0.08c2.68,0.06,4.19-0.76,5.53-3.16 c6.67-11.99,12.32-24.41,16.66-37.42c0.23-0.7,0.29-1.47,1.24-1.96c0.53,1.2,0.2,2.21-0.17,3.37c-2.38,7.53-5.49,14.77-8.78,21.93 c-2.62,5.7-5.64,11.2-8.7,16.61c0.81,0.89,1.73,0.54,2.55,0.54c6.07,0.03,12.15-0.02,18.22,0.05c1.74,0.02,2.89-0.48,4.04-1.95 c7.91-10.02,15.04-20.53,20.99-31.83c0.44-0.84,0.71-1.91,2.18-1.86c0.09,1.4-0.8,2.45-1.38,3.54 c-5.78,10.81-12.58,20.95-20.23,30.53c-0.34,0.43-1.41,0.95-0.19,1.64c0.75,1,1.82,0.45,2.72,0.46c6.39,0.06,12.77,0.03,19.2,0.03 c-0.09,1.1-0.91,0.65-1.32,0.91c-6.55,0-13.1,0.1-19.65-0.07c-2.33-0.06-3.88,0.62-5.39,2.41c-8.31,9.84-17.69,18.57-27.91,26.41 c-1.88,1.44-4.02,2.58-5.96,4.79c4.43,0,8.37,0,12.31,0c1.23,0,2.48-0.2,3.61,0.5c-0.65,1.6-2.15,0.38-3.12,0.94 c-4.07,0.01-8.15,0.12-12.21,0c-2.32-0.07-4.33,0.46-6.26,1.73c-5.34,3.53-11.01,6.47-16.81,9.12c-3.44,1.57-6.9,3.17-10.64,3.98 c-0.4-0.11-0.66,0.01-0.74,0.44c-0.49,0.11-0.97,0.21-1.46,0.32c-4.25,1.73-9.04,1.41-13.21,3.48c-0.38,0.19-1.08,0.16-1.4-0.08 c-1.13-0.83-2.39-0.59-3.58-0.53c-1.97,0.09-3.87-0.2-5.76-0.67c-0.98-0.08-1.99-0.05-2.95-0.25c-14.04-3-27.27-8.09-39.52-15.6 c-2.2-1.35-4.4-1.95-6.96-1.93c-8.52,0.07-17.04-0.01-25.56-0.02c-0.85-0.09-1.7-0.18-2.55-0.26c0.78-1.66,2.31-1.14,3.59-1.15 c7.05-0.04,14.11-0.01,21.16-0.04c1.21-0.01,2.47,0.29,3.78-0.3c-0.54-1.07-1.57-1.54-2.43-2.17c-4.78-3.5-9.42-7.17-13.85-11.12 c-6.19-5.54-11.86-11.55-17.13-17.95c-1.07-1.29-2.18-2.06-4.06-2.04c-11.76,0.12-23.51,0.09-35.27,0.1 c-0.46-0.11-0.91-0.21-1.41-0.33c0.58-1.06,1.46-0.59,2.15-0.6c10.97-0.03,21.94-0.01,32.91-0.06c0.82,0,2.01,0.72,2.49-0.71 c-6.94-9.45-13.55-19.11-18.8-29.62c-1.98-3.96-3.87-7.98-5.67-12.03c-0.68-1.52-1.44-2.22-3.25-2.19 c-7.18,0.14-14.37,0.08-21.56,0.09c-0.74,0-1.49,0.01-2.23-0.01c-0.5-0.01-1.02-0.11-1.04-0.73c-0.02-0.67,0.54-0.73,1.03-0.73 c4.83-0.03,9.66-0.05,14.5-0.06c3.58-0.01,7.15,0,10.92,0c-2.66-7.14-5.08-13.96-6.86-20.99c-0.24-0.95-0.41-1.93-0.61-2.89 c0.29,0.01,0.59,0.02,0.88,0.04c1.94,4.41,2.87,9.15,4.5,13.66c0.96,2.66,2.06,5.29,2.87,8c0.53,1.78,1.51,2.3,3.24,2.19 c1.98-0.12,3.97-0.02,5.95-0.05c1.03-0.01,1.98,0.08,2.84,1.47c-3.56,0-6.89,0-10.51,0c4.59,10.93,9.93,20.9,16.17,30.4 c2.72,4.14,5.63,8.13,8.64,12.05c0.72,0.94,1.4,1.57,2.7,1.57c9.28-0.04,18.57-0.02,28.26-0.02 c-6.64-11.09-12.42-22.17-16.99-34.05c1.37-0.46,1.77,0.41,2.16,1.31c1.62,3.73,3.19,7.48,4.9,11.16 c3.12,6.72,6.65,13.22,10.54,19.53c0.65,1.06,1.14,2.09,2.72,2.08c8.53-0.06,17.06-0.03,25.47-0.03c0.66-1.14,0.09-1.85-0.19-2.63 c-3.59-10.23-6.42-20.68-8.9-31.23c-0.11-0.48-0.2-0.97-0.25-1.46c-0.05-0.51,0.04-1.04,0.62-1.14c0.66-0.12,0.75,0.43,0.86,0.93 c2.21,9.98,4.82,19.86,8.14,29.54c0.48,1.4,1.06,2.76,1.46,4.18c0.35,1.24,0.96,1.84,2.34,1.84c10.02-0.04,20.04-0.02,30.26-0.02 c0-14.73,0-29.28,0-44.01c-8.75,0-17.39,0-26.2,0c1.5-1.53,1.5-1.56,3.61-1.57c6.32-0.03,12.65,0,18.97-0.05 c4.23-0.03,3.8,0.69,3.81-3.66c0.01-14.51,0.01-29.01,0.01-43.52C331.86,284.79,331.86,284.79,329.82,282.41z M240.37,383.03 c1.37,2.64,3.29,4.26,4.9,6.1c8.76,9.98,18.67,18.66,29.69,26.08c1.53,1.03,3.07,1.4,4.86,1.38c4.7-0.05,9.4,0.01,14.1-0.04 c0.92-0.01,1.94,0.37,2.79-0.4c-0.37-1-1.28-1.5-1.97-2.19c-3.39-3.42-6.79-6.82-9.95-10.47c-5.02-5.8-9.56-11.95-13.83-18.31 c-0.88-1.3-1.66-2.22-3.47-2.2C258.59,383.08,249.69,383.03,240.37,383.03z M389.79,383.29c-0.68-0.41-1.44-0.27-2.17-0.27 c-8.3-0.01-16.61-0.01-24.91,0.01c-2.69,0-2.73,0.01-3.65,2.54c-3.61,9.84-7.68,19.48-12.34,28.87c-0.29,0.58-1.07,1.11-0.24,2.14 c4.53,0,9.22-0.1,13.9,0.04c2.17,0.06,3.71-0.73,5.22-2.19c9.05-8.73,16.71-18.55,23.46-29.13 C389.43,384.71,390.08,384.15,389.79,383.29z M331.5,416.57c0.15-0.5,0.34-0.84,0.34-1.18c0.02-10.16-0.02-20.31,0.06-30.47 c0.01-1.83-0.87-1.92-2.27-1.91c-9.17,0.04-18.33,0.02-27.5,0.01c-0.5,0-0.98-0.01-1.62,0.68c1.2,2.86,2.46,5.9,3.75,8.93 c3.19,7.51,7,14.69,11.24,21.66c1,1.64,2.13,2.43,4.17,2.34C323.59,416.44,327.54,416.57,331.5,416.57z M314.41,416.56 c0.33-0.88-0.07-1.25-0.31-1.64c-5.82-9.48-10.64-19.45-14.61-29.84c-0.66-1.73-1.66-2.11-3.35-2.09 c-7.31,0.08-14.63,0.02-21.94,0.05c-0.79,0-1.71-0.41-2.47,0.52c7.61,11.78,16.51,22.48,26.89,31.95 c0.68,0.62,1.38,1.04,2.29,1.04C305.47,416.56,310.03,416.56,314.41,416.56z M365.54,416.58c3.65,0,6.49-0.09,9.32,0.03 c2.22,0.09,4.02-0.58,5.84-1.85c11.1-7.76,21.15-16.69,30.27-26.69c1.4-1.54,2.72-3.16,4.32-5.04c-7.35,0-14.26,0.03-21.18-0.03 c-1.44-0.01-2.16,0.59-2.92,1.75c-2.7,4.14-5.45,8.25-8.36,12.23C377.87,403.79,372.28,410.06,365.54,416.58z M333.38,416.58 c2.89,0,5.37-0.17,7.82,0.05c2.07,0.19,3.09-0.64,3.96-2.41c4.67-9.49,8.87-19.17,12.43-29.14c0.21-0.58,0.47-1.13,0.02-2.05 c-7.5,0-15.14,0.02-22.79-0.01c-1.52-0.01-1.45,0.95-1.45,1.98c0.01,6.81,0.01,13.61,0.01,20.42 C333.38,408.99,333.38,412.56,333.38,416.58z M323.01,434.23c-0.32-0.42-0.42-0.69-0.61-0.78c-7.81-3.79-15.04-8.47-21.63-14.13 c-0.97-0.83-2.05-1.28-3.37-1.27c-5.71,0.04-11.41,0.02-17.44,0.02C289.13,424.85,311.55,433.77,323.01,434.23z M335.28,434.37 c7.94-2.46,21.65-11.29,25.52-16.32c-4.84,0-9.53,0.02-14.22-0.01c-1.26-0.01-2.08,0.51-2.7,1.58 C341.13,424.39,338.34,429.14,335.28,434.37z M302.46,418.06c3.66,5.08,20.72,15.34,26.4,15.84c-4.13-4.36-7.93-8.9-11.26-13.8 c-1.02-1.51-2.21-2.1-3.99-2.06C309.9,418.12,306.19,418.06,302.46,418.06z M331.86,434.58c0-5.44-0.02-10.12,0.01-14.81 c0.01-1.22-0.36-1.78-1.69-1.73c-2.59,0.08-5.18-0.01-7.77,0.04c-1.27,0.03-2.6-0.25-4.11,0.37 C322.29,424.28,326.44,429.55,331.86,434.58z M374.33,418.84c-0.09-0.26-0.19-0.52-0.28-0.78c-2.09,0-4.2,0.2-6.26-0.05 c-2.85-0.34-4.93,0.77-6.97,2.59c-3.95,3.53-8.21,6.68-12.83,9.31c-0.75,0.42-1.5,0.86-2.18,1.37c-0.54,0.4-1.43,0.43-1.59,1.57 C354.98,429.49,364.97,424.83,374.33,418.84z M342.93,418.05c-2.99,0-5.59,0.02-8.19-0.01c-0.94-0.01-1.36,0.41-1.36,1.31 c0,4.62,0,9.23,0,14.69C337.06,428.5,340.17,423.65,342.93,418.05z"></path> <path class="st5" d="M170.26,129.79c5.18-1.39,10.36-1.43,15.42,0.38c1.36,0.49,2.86,0.38,4.11,1.18c4.75,0.89,9.17,2.8,13.56,4.7 c6.45,2.8,12.72,5.98,18.6,9.87c1.91,1.26,3.86,1.95,6.23,1.85c4.21-0.18,8.43-0.06,12.64-0.04c0.97,0,1.98-0.19,2.93,0.31 c-0.17,1.54-1.34,1.18-2.23,1.19c-4.46,0.03-8.91,0.01-13.99,0.01c3.69,2.87,6.93,5.35,10.14,7.88 c8.99,7.06,17.04,15.09,24.46,23.76c1.15,1.35,2.33,1.92,4.11,1.9c6.2-0.1,12.4-0.05,18.59-0.02c1.21,0.01,2.46-0.24,3.63,0.35 c-0.03,1.5-1.1,1.14-1.85,1.15c-5.7,0.03-11.4,0.01-17.11,0.01c-1.23,0-2.46,0-4.25,0c4.62,6.03,9.01,11.64,12.85,17.64 c3.82,5.98,7.58,12.01,10.57,18.63c-1.88,0.27-2.15-1.16-2.65-2.14c-3.44-6.72-7.48-13.07-11.68-19.33 c-3.1-4.62-6.54-9-9.99-13.37c-0.73-0.93-1.49-1.47-2.78-1.46c-7.18,0.07-14.36,0.03-21.81,0.03c2,3.7,3.86,7.11,5.69,10.54 c3.61,6.75,6.52,13.81,9.38,20.9c0.18,0.45,0.32,0.93,0.39,1.41c0.03,0.18-0.16,0.49-0.34,0.59c-0.33,0.19-0.74,0.17-0.92-0.22 c-0.36-0.78-0.66-1.58-0.98-2.37c-3.97-9.99-8.55-19.68-14.01-28.94c-0.56-0.96-0.91-1.93-2.37-1.92 c-9.78,0.05-19.56,0.03-29.51,0.03c1.81,6.08,3.59,11.91,5.29,17.77c2.2,7.57,3.93,15.27,5.62,22.96c0.78,3.58,0.68,3.6,4.5,4.02 c-1.14,1.56-3.86,1.15-4.04,3.76c-0.59-2.41-2.07-2.61-4-2.6c-9.05,0.07-18.1-0.01-27.15-0.03c-0.87,0-1.74,0.03-2.6-0.03 c-0.34-0.02-0.72-0.2-0.72-0.67c0-0.43,0.29-0.69,0.64-0.72c0.99-0.07,1.98-0.06,2.97-0.06c8.68,0.01,17.35,0.05,26.03,0.04 c1.09,0,2.22,0.26,3.42-0.29c-1.3-7.74-3.27-15.33-5.24-22.92c-1.61-6.19-3.45-12.32-5.56-18.36c-1-2.86-0.97-2.87-4.08-2.88 c-6.45-0.01-12.89-0.01-19.34,0.01c-0.84,0-1.72-0.24-2.82,0.45c0,0.89,0,1.97,0,3.05c0,9.42,0,18.84-0.01,28.26 c0,0.99,0.01,1.98-0.06,2.97c-0.02,0.33-0.2,0.75-0.69,0.65c-0.39-0.08-0.65-0.35-0.67-0.74c-0.05-0.99-0.07-1.98-0.07-2.97 c-0.01-9.79,0-19.59-0.02-29.38c0-2.24-0.05-2.29-2.18-2.3c-9.3-0.02-18.6,0.06-27.89-0.06c-1.92-0.03-2.53,0.83-3.05,2.35 c-3.28,9.55-6.18,19.21-8.42,29.06c-0.25,1.08-0.51,2.15-0.76,3.23c-0.12,0.53-0.4,1.01-0.96,0.8c-0.47-0.17-0.61-0.74-0.48-1.27 c1.09-4.43,2.11-8.87,3.29-13.28c1.85-6.89,4.02-13.69,6.4-20.39c-0.96-0.77-1.99-0.42-2.94-0.43c-7.07-0.03-14.13,0.1-21.2-0.08 c-2.56-0.07-3.96,0.76-5.26,2.98c-6.52,11.07-12.15,22.55-16.71,34.56c-0.31,0.82-0.6,1.6-1.19,2.29 c-0.95-1.86,0.01-3.49,0.65-5.1c4.39-11.02,9.49-21.69,15.64-31.85c0.44-0.73,0.85-1.48,1.34-2.34c-0.75-0.73-1.62-0.47-2.4-0.47 c-8.06-0.02-16.12,0.04-24.17-0.06c-2.03-0.03-3.36,0.5-4.64,2.2c-7.23,9.59-13.67,19.66-19.07,30.4 c-0.52,1.04-0.72,3.24-2.27,2.53c-1-0.46,0.48-2.08,0.98-3.11c5.21-10.7,11.56-20.69,18.77-30.15c0.37-0.49,0.74-0.98,1.32-1.75 c-11.78,0-23.26,0-34.74,0c-1.17-0.59-3.44,0.86-3.51-1.02c-0.04-1.13,2.27-0.33,3.51-0.54c0.7-0.12,1.44-0.06,2.16-0.09 c10.27,0.01,20.54-0.07,30.8,0.1c2.42,0.04,3.76-0.9,5.22-2.64c4.84-5.78,9.99-11.27,15.61-16.34c5.68-5.12,11.64-9.86,18.4-14.59 c-2.05,0-3.52-0.02-4.99,0c-8.04,0.11-16.08-0.26-24.11,0.2c-0.05-0.72-0.21-1.53,0.86-1.61c1.21-0.09,2.42-0.09,3.63-0.14 c8.17,0.01,16.35-0.03,24.52,0.06c1.84,0.02,3.33-0.57,4.85-1.49c6.86-4.17,13.99-7.8,21.55-10.55 C154.61,132.98,162.21,130.52,170.26,129.79z M86.9,182.33c1.08,0.61,1.96,0.41,2.81,0.41c7.81,0.01,15.62-0.07,23.42,0.05 c2.25,0.04,3.5-0.71,4.74-2.62c6.85-10.5,14.75-20.16,23.9-28.76c0.61-0.58,1.39-1.05,1.7-2.18c-5.64,0-11.2,0.08-16.77-0.04 c-2.22-0.05-4.04,0.56-5.85,1.8c-10.15,6.97-19.33,15.04-27.67,24.07C91.03,177.4,89.02,179.87,86.9,182.33z M236.73,182.54 c-2.5-4.31-5.25-8.23-8.08-12.1c-4.82-6.61-10.24-12.69-15.95-18.54c-1.85-1.9-3.76-2.9-6.5-2.73c-3.7,0.23-7.42,0.03-11.14,0.08 c-0.91,0.01-1.91-0.32-2.78,0.42c5.12,10.01,9.66,20.24,13.26,30.87c0.52,1.55,1.3,2.27,3.15,2.24 c8.79-0.12,17.58-0.04,26.37-0.05C235.54,182.74,236.02,182.63,236.73,182.54z M147.25,182.4c0.2,0.1,0.31,0.2,0.42,0.2 c9.76,0.05,19.51,0.07,29.27,0.15c1.4,0.01,1.59-0.69,1.58-1.84c-0.03-9.89-0.06-19.78,0.02-29.67c0.01-1.74-0.7-2.06-2.18-2.03 c-3.34,0.07-6.68,0.15-10.01-0.02c-2.1-0.11-3.32,0.6-4.41,2.42c-4.74,7.92-8.99,16.08-12.49,24.63 C148.62,178.26,147.59,180.22,147.25,182.4z M118.28,182.38c0.27,0.13,0.38,0.23,0.48,0.23c8.28,0.05,16.56,0.07,24.83,0.16 c1.39,0.01,1.86-0.66,2.31-1.84c2.77-7.25,5.94-14.31,9.64-21.14c1.87-3.45,3.88-6.81,6.01-10.54c-4.34,0-8.41,0.12-12.47-0.05 c-2.05-0.09-3.46,0.66-4.91,1.99c-6.86,6.28-13,13.19-18.61,20.58C122.99,175.17,120.41,178.62,118.28,182.38z M212.16,149.27 c1.4,1.44,2.51,2.58,3.63,3.72c8.28,8.41,15.45,17.69,21.63,27.74c0.97,1.57,2.14,2.08,3.92,2.05c5.82-0.09,11.65-0.02,17.47-0.05 c0.78,0,1.68,0.36,2.35-0.38c-0.1-0.28-0.11-0.56-0.26-0.73c-1.14-1.3-2.31-2.58-3.47-3.87c-9.23-10.26-19.51-19.32-30.93-27.07 c-0.91-0.62-1.73-1.42-2.95-1.41C219.85,149.28,216.16,149.27,212.16,149.27z M204.82,182.59c-1.59-4.11-3.07-7.98-4.58-11.84 c-2.55-6.53-5.53-12.86-8.61-19.15c-0.88-1.79-1.91-2.64-3.97-2.4c-1.71,0.2-3.46,0.07-5.19,0.03c-2.67-0.07-2.46,0.17-2.46,2.4 c0.02,9.89,0.01,19.78,0.01,29.67c0,0.48-0.04,0.99,0.5,1.3C188.49,182.59,196.48,182.59,204.82,182.59z M170.11,131.52 c-15.65,1.98-29.92,7.64-43.96,16.2c6.49,0,12.17-0.02,17.85,0.02c1.19,0.01,2.09-0.34,3.02-1.08c2.39-1.94,4.87-3.78,7.34-5.61 C159.3,137.39,164.67,134.43,170.11,131.52z M207.43,147.73c-4.76-5.73-20.66-15.58-25.65-15.96c2.87,4.6,5.85,9.14,8.34,13.97 c0.78,1.5,1.75,2.09,3.5,2.04C198.18,147.64,202.75,147.73,207.43,147.73z M149.12,147.73c3.95,0,7.9-0.03,11.84,0.02 c1.23,0.02,2.08-0.34,2.77-1.4c3.43-5.23,7.42-10.01,11.63-14.69C165.5,135.03,156.88,140.44,149.12,147.73z M178.52,131.45 c-5.34,4.32-12.13,12.72-13.19,16.28c3.76,0,7.47-0.08,11.18,0.03c1.72,0.05,2.06-0.67,2.03-2.19 C178.47,140.99,178.52,136.41,178.52,131.45z M190.12,133.09c6.69,3.97,13.07,8.33,18.88,13.5c0.75,0.67,1.51,1.18,2.61,1.16 c3.22-0.06,6.44-0.02,10.46-0.02C211.56,141.13,201.3,136.11,190.12,133.09z M180.01,132.28c0,3.05-0.09,5.37,0.02,7.67 c0.13,2.54-0.57,5.14,0.49,7.62c2.58,0.05,5.17,0.11,7.75,0.14c0.22,0,0.45-0.17,0.98-0.38 C186.6,142.33,183.87,137.44,180.01,132.28z"></path> <path class="st6" d="M11.18,256.39c0.59-6.26,2.04-12.36,3.35-18.48c0.67-3.12,1.77-6.14,2.09-9.33c0.02-0.16,0.35-0.29,0.53-0.44 c0,0,0.13,0.1,0.13,0.1c-0.17,0.82,0,1.38,0.99,1.41c0.71,0.02,1.41,0.1,2.12,0.15c-1.43,4.17-2.94,8.31-4.28,12.51 c-1.71,5.35-3.23,10.76-4.2,16.3C10.59,258.22,11.56,257.08,11.18,256.39z"></path> <path class="st7" d="M113.13,228.22c4.08,0,8.16-0.01,12.24,0.01c0.73,0,1.47,0.05,2.19,0.15c0.17,0.02,0.36,0.3,0.45,0.49 c0.19,0.45-0.2,0.77-0.49,0.83c-0.59,0.13-1.22,0.11-1.83,0.11c-8.29-0.01-16.57-0.02-24.86-0.04c-0.49,0-0.99,0-1.48-0.04 c-0.5-0.05-1-0.2-0.98-0.83c0.02-0.64,0.54-0.72,1.04-0.72c4.58-0.01,9.15,0,13.73,0C113.13,228.19,113.13,228.21,113.13,228.22z"></path> <path class="st8" d="M20.38,229.8c-0.71-0.05-1.41-0.14-2.12-0.15c-0.99-0.03-1.16-0.59-0.99-1.41c1.47-0.05,2.93-0.09,4.4-0.14 c5.68,0.01,11.35,0.03,17.03,0.04c0.86,0,1.73,0.01,2.59,0.01c0.5,0,1.06,0.08,1.1,0.66c0.06,0.9-0.68,0.83-1.29,0.83 c-0.74,0.01-1.48,0-2.22,0c-4.94,0-9.87-0.01-14.81,0C22.85,229.65,21.61,229.75,20.38,229.8z"></path> <path class="st9" d="M184.02,282.84c0.13-0.79,0.79-0.87,1.38-0.88c3.95-0.02,7.9-0.01,11.85-0.01c0.25,0,0.52-0.06,0.73,0.03 c0.33,0.14,0.66,0.39,0.59,0.81c-0.03,0.2-0.24,0.43-0.43,0.53c-0.2,0.1-0.47,0.09-0.71,0.09c-4.2,0-8.39-0.02-12.59-0.02 C184.43,283.4,184.2,283.19,184.02,282.84z"></path> <path class="st10" d="M11.18,256.39c0.38,0.69-0.59,1.83,0.73,2.22c-0.67,3.92-1.16,7.87-2.04,11.76 c-0.37,1.63-0.2,3.39-0.46,5.08c-0.36-2.32-0.2-4.57,0.07-6.93c0.35-3.13,0.82-6.29,0.98-9.45 C10.5,258.14,10.08,257.04,11.18,256.39z"></path> <path class="st11" d="M305.58,228.91c4.1,0,7.55-0.01,10.99,0.01c0.49,0,1.01,0.18,0.91,0.85c-0.03,0.19-0.29,0.49-0.45,0.49 c-3.3,0.07-6.62,0.52-9.9-0.24C306.82,229.95,306.55,229.62,305.58,228.91z"></path> <path class="st12" d="M203.86,312.25c-0.29-0.01-0.59-0.02-0.88-0.04c-1.12-0.8-0.54-1.94-0.59-2.95l0.05-0.04 C203.61,309.91,203.85,311.03,203.86,312.25z"></path> <path class="st12" d="M202.39,309.26c-1.31-0.74-0.7-1.75-0.42-2.8c0.76,0.89,0.36,1.87,0.47,2.76L202.39,309.26z"></path> <path class="st13" d="M469.42,336.86c-3.32,0.02-6.64,0.04-9.95,0.04c-0.72,0-1.49,0.15-2.14-0.3c-0.17-0.12-0.33-0.37-0.34-0.56 c0-0.18,0.18-0.51,0.33-0.53c0.71-0.11,1.44-0.17,2.16-0.18c3.81-0.07,7.61-0.12,11.42-0.18 C471.19,336.4,470.57,336.86,469.42,336.86z"></path> <path class="st14" d="M479.3,306.39c0.23-3.31,1.58-6.47,1.39-9.84c-0.02-0.39,0.36-0.57,0.72-0.67l-0.04-0.04 c0.53,4.14-0.74,8.15-0.9,12.24c-0.01,0.17-0.32,0.32-0.49,0.48C479.6,307.89,480.44,306.83,479.3,306.39z"></path> <path class="st3" d="M454.25,341.09c-0.8,0.58-1.69,0.31-2.53,0.31c-10.53,0.02-21.07-0.06-31.6,0.07 c-2.37,0.03-3.33-0.86-4.3-2.93c-5.36-11.51-10.42-23.15-16.25-34.43c-1.13-2.2-2.46-4.27-4.01-6.21 c-2.72-3.4-6.31-4.51-10.48-4.39c-1.41,0.04-2.02,0.72-2.04,2.05c-0.02,0.99-0.01,1.98-0.01,2.97c0,12.89,0,25.78,0,38.67 c0,0.87-0.03,1.74,0,2.6c0.03,1.06-0.39,1.64-1.51,1.61c-0.37-0.01-0.74,0-1.12,0c-10.04,0-20.08,0-30.03,0 c-0.97-0.68-0.65-1.62-0.65-2.43c-0.01-37.31-0.01-74.61-0.01-111.92c0-0.37,0.03-0.75,0-1.12c-0.1-1.21,0.31-1.87,1.66-1.74 c0.86,0.08,1.73,0.02,2.6,0.01c9.04-0.12,18.08,0.27,27.12-0.22c1.27-0.07,1.88,0.31,1.93,1.55c0.03,0.87,0.01,1.73,0.01,2.6 c0,12.77,0,25.53,0,38.3c0,4.27,0.89,5.05,5.07,4.01c3.67-0.92,6.29-3.26,8.07-6.6c2.5-4.68,4.37-9.64,6.38-14.53 c1.49-3.64,2.97-7.28,4.54-10.89c3.34-7.68,9.43-11.79,17.49-13.23c4.86-0.87,9.74-1.54,14.7-1.6c3.46-0.04,6.91-0.41,10.37-0.49 c2.49-0.06,2.62,0.08,2.63,2.41c0.04,5.7-0.04,11.4,0.05,17.1c0.02,1.46-0.44,2.09-1.88,1.94c-2.01-0.21-3.95,0.41-5.86,0.79 c-4.89,0.96-8.87,3.4-11.77,7.64c-2.33,3.41-3.86,7.16-5.31,10.95c-2.51,6.58-6.25,12.03-13.09,14.75 c-1.12,0.45-2.06,1.2-1.96,2.4c0.1,1.19,1.15,1.76,2.28,2.16c7.7,2.73,13.11,8.18,17.53,14.8c3.09,4.63,5.63,9.56,8.11,14.53 c4.19,8.39,8.37,16.78,12.51,25.19C453.41,338.82,454.21,339.8,454.25,341.09z"></path> <path class="st15" d="M423.85,282.59c4.93-0.04,9.86-0.11,14.79-0.11c13.44-0.02,26.89,0.01,40.33-0.04 c1.09,0,2.51,0.77,3.27-0.81c0.83,0.69,1.1,1.37-0.11,1.93c-0.94,0.43-1.96,0.22-2.94,0.22c-6.55,0.02-13.11,0.01-19.89,0.01 c-0.77,13.81-3.28,27.19-7.92,40.16c-1.04-0.53-1.23-1.2-0.86-2.36c1.72-5.51,3.31-11.06,4.49-16.72 c1.26-6.05,1.89-12.17,2.45-18.31c0.08-0.83,0.3-1.72-0.41-2.78c-1.9,0-3.97,0-6.05,0c-7.56,0-15.12,0-22.68,0 C426.72,283.78,425.09,283.92,423.85,282.59z"></path> <path class="st16" d="M387.7,336.35c3.73-1.07,19.37-1.15,22.06-0.11c-0.45,0.21,0.33-0.08,0.07,0.34 c-0.06,0.1-0.19,0.21-0.29,0.22c-6.78,0.08-13.56,0.15-20.34,0.2c-0.46,0-1,0.14-1.34-0.37 C387.8,336.54,387.75,336.44,387.7,336.35z"></path> <path class="st14" d="M481.41,295.88c0-2.17,0-4.33,0-6.5c0.28,2.17,1.62,4.41-0.04,6.46L481.41,295.88z"></path> <path class="st17" d="M348.29,432.86c-0.12,0.35-0.32,0.58-0.74,0.44C347.63,432.87,347.89,432.74,348.29,432.86z"></path> <path class="st18" d="M282.21,306.43c-1.37-7.12-0.77-13.96-1.52-20.72c-0.25-2.2-0.15-2.31-2.33-2.24 c-3.57,0.11-7.22,0.44-10.7,0.26c-8.05-0.44-16.07,0-24.1-0.27c-0.62-0.02-1.25,0.04-1.85-0.07c-0.28-0.05-0.73-0.28-0.55-0.76 c0.08-0.2,0.26-0.5,0.42-0.52c0.85-0.1,1.71-0.17,2.56-0.17c6.81-0.01,13.63,0.01,20.44-0.02c2.42-0.01,2.55-0.07,2.36-2.5 c-0.59-7.5-1.11-15.02-2.48-22.44c-0.34-1.82-0.69-3.63-0.98-5.46c-0.05-0.29,0.16-0.82,0.39-0.92c0.52-0.23,0.94,0.09,1.06,0.64 c0.45,2.05,1.03,4.08,1.28,6.15c0.63,5.39,1.58,10.75,1.8,16.19c0.09,2.09,0.41,4.18,0.46,6.27c0.04,1.52,0.5,2.15,2.14,2.11 c4.33-0.1,8.67-0.04,13-0.04c0.62,0,1.24-0.01,1.86,0c0.7,0.02,1.7-0.19,1.64,0.88c-0.06,0.92-1.02,0.86-1.76,0.93 c-3.38,0.33-3.54,0.36-3.08,3.62c0.75,5.28,0.1,10.64,1.08,15.9C283.57,304.36,283.44,305.46,282.21,306.43z"></path> </g> <g> <g> <path class="st0" d="M675.07,54.71v112.45h-24.1V97.92l-29.72,45.14h-13.98l-29.72-45.3v69.4h-24.1V54.71h22.33l38.56,58.48 l38.4-58.48H675.07z"></path> <path class="st0" d="M730.17,87.8c31.97,0,42.25,25.22,37.11,48.03h-54.3c2.57,11.25,14.46,15.9,27.15,15.9 c8.84,0,16.71-1.77,23.29-4.66v17.51c-7.23,3.05-16.71,4.82-28.27,4.82c-24.42,0-44.66-13.98-44.66-40.8 C690.49,99.53,712.82,87.8,730.17,87.8z M730.98,104.83c-9.48,0-17.83,5.94-18.15,16.55h34.38 C748.01,116.08,744.95,104.83,730.98,104.83z"></path> <path class="st0" d="M873.63,167.16l-19.12-28.76h-8.68v28.76h-22.33v-28.76h-8.68l-19.12,28.76h-23.94l26.67-38.72l-24.42-38.39 h23.78l18.47,30.68h7.23V90.05h22.33v30.68h7.23l18.47-30.68h23.78l-24.42,38.39l26.67,38.72H873.63z"></path> <path class="st0" d="M901.26,187.57v-37.43h10.76c9.32-16.23,11.73-35.66,11.25-60.08h63.46v60.08h11.57v37.43h-20.56v-20.4 h-55.91v20.4H901.26z M935.15,150.13h29.4v-43.05h-20.72C943.19,125.23,940.94,137.6,935.15,150.13z"></path> <path class="st0" d="M1063.51,90.05h23.13l-34.22,86.43c-8.68,21.53-20.72,28.11-33.25,28.11c-4.02,0-8.03-0.8-12.05-1.77v-18.47 c3.05,0.64,6.1,1.12,9.16,1.12c8.03,0,14.14-5.46,18.31-16.87l0.16-0.32l-36.47-78.24h23.62l22.49,52.05L1063.51,90.05z"></path> <path class="st0" d="M1097.72,167.16V90.05h22.33v29.24h31.17V90.05h22.33v77.11h-22.33v-29.24h-31.17v29.24H1097.72z"></path> <path class="st0" d="M1266.88,152.38c1.29,0,2.73-0.16,4.18-0.64v14.62c-3.53,1.29-8.03,2.25-12.37,2.25 c-7.87,0-13.82-2.89-17.03-8.68c-7.55,5.94-16.39,9.48-27.79,9.48c-14.46,0-26.99-8.35-26.99-23.62c0-19.6,18.47-25.7,33.9-25.7 c6.1,0,12.85,0.8,18.31,2.09v-2.73c0-7.71-6.1-13.01-18.15-13.01c-10.6,0-20.08,2.89-27.31,5.78V92.94 c6.27-2.09,17.99-5.14,29.88-5.14c23.13,0,37.91,9.48,37.91,34.86v24.58C1261.42,151.26,1263.99,152.38,1266.88,152.38z M1209.69,144.03c0,5.78,5.3,9.48,12.05,9.48c6.27,0,12.21-1.77,17.35-6.27v-12.05c-3.37-0.8-8.51-1.77-13.17-1.77 C1217.72,133.43,1209.69,136.16,1209.69,144.03z"></path> <path class="st0" d="M1330.65,87.8c24.42,0,37.59,19.76,37.59,40.8c0,21.05-13.17,40.8-37.59,40.8 c-12.21,0-20.4-4.98-25.38-10.44v43.54h-22.33V90.05h19.76v11.25C1307.52,94.39,1316.36,87.8,1330.65,87.8z M1325.19,106.6 c-9.8,0-17.03,6.1-20.08,12.85v18.31c3.05,6.75,10.28,12.85,20.08,12.85c12.69,0,20.24-9.96,20.24-22.01 C1345.43,116.56,1337.88,106.6,1325.19,106.6z"></path> <path class="st0" d="M1421.09,87.8c22.49,0,42.57,13.82,42.57,40.8c0,26.99-20.08,40.8-42.57,40.8 c-22.33,0-42.57-13.82-42.57-40.8C1378.52,101.62,1398.76,87.8,1421.09,87.8z M1421.09,107.72c-12.69,0-19.76,9-19.76,20.88 c0,11.89,7.07,20.88,19.76,20.88c12.85,0,19.92-9,19.92-20.88C1441.01,116.72,1433.95,107.72,1421.09,107.72z"></path> <path class="st0" d="M1470.09,187.57v-37.43h10.76c9.32-16.23,11.73-35.66,11.24-60.08h63.46v60.08h11.57v37.43h-20.56v-20.4 h-55.91v20.4H1470.09z M1503.99,150.13h29.4v-43.05h-20.72C1512.02,125.23,1509.77,137.6,1503.99,150.13z"></path> <path class="st0" d="M1580.93,167.16V90.05h22.33v29.24h31.17V90.05h22.33v77.11h-22.33v-29.24h-31.17v29.24H1580.93z"></path> <path class="st0" d="M1750.09,152.38c1.29,0,2.73-0.16,4.18-0.64v14.62c-3.53,1.29-8.03,2.25-12.37,2.25 c-7.87,0-13.82-2.89-17.03-8.68c-7.55,5.94-16.39,9.48-27.79,9.48c-14.46,0-26.99-8.35-26.99-23.62c0-19.6,18.47-25.7,33.9-25.7 c6.1,0,12.85,0.8,18.31,2.09v-2.73c0-7.71-6.1-13.01-18.15-13.01c-10.6,0-20.08,2.89-27.31,5.78V92.94 c6.27-2.09,17.99-5.14,29.88-5.14c23.13,0,37.91,9.48,37.91,34.86v24.58C1744.63,151.26,1747.2,152.38,1750.09,152.38z M1692.9,144.03c0,5.78,5.3,9.48,12.05,9.48c6.27,0,12.21-1.77,17.35-6.27v-12.05c-3.37-0.8-8.51-1.77-13.17-1.77 C1700.93,133.43,1692.9,136.16,1692.9,144.03z"></path> <path class="st0" d="M1759.4,167.16l20.24-25.86c-10.44-4.5-15.74-13.82-15.74-24.26c0-14.46,10.6-26.99,30.84-26.99h41.77v77.11 h-22.33v-22.97h-12.53l-17.19,22.97H1759.4z M1799.25,127.48h14.94v-19.76h-14.94c-8.03,0-12.69,3.53-12.69,9.96 C1786.55,123.95,1791.21,127.48,1799.25,127.48z"></path> <path class="st0" d="M606.96,224.17c39.84,0,59.76,27.95,59.76,58.48s-19.92,58.48-59.76,58.48c-39.84,0-59.76-27.95-59.76-58.48 S567.12,224.17,606.96,224.17z M606.96,246.5c-23.45,0-35.18,16.39-35.18,36.15c0,19.76,11.73,36.15,35.18,36.15 c23.29,0,35.02-16.39,35.02-36.15C641.98,262.89,630.25,246.5,606.96,246.5z"></path> <path class="st0" d="M719.89,341.12c-22.65,0-41.13-13.33-41.13-46.59c0-27.63,9.8-43.54,23.62-52.21 c22.17-13.82,40.96-7.71,51.73-18.15v20.4c-10.44,8.51-23.45,4.34-38.39,12.21c-8.84,4.82-13.01,14.3-14.14,21.85 c4.82-6.75,13.33-12.05,25.06-12.05c18.96,0,34.22,13.49,34.22,37.11C760.86,328.27,743.18,341.12,719.89,341.12z M719.89,323.29 c13.65,0,18.15-10.76,18.15-19.44c0-8.68-4.5-19.44-18.15-19.44c-13.49,0-18.31,11.24-18.31,19.44 C701.58,312.53,706.4,323.29,719.89,323.29z"></path> <path class="st0" d="M823.34,259.51c24.42,0,37.59,19.76,37.59,40.8c0,21.04-13.17,40.8-37.59,40.8 c-12.21,0-20.4-4.98-25.38-10.44v43.54h-22.33V261.76h19.76v11.25C800.21,266.1,809.05,259.51,823.34,259.51z M817.88,278.31 c-9.8,0-17.03,6.1-20.08,12.85v18.31c3.05,6.75,10.28,12.85,20.08,12.85c12.69,0,20.24-9.96,20.24-22.01 C838.12,288.27,830.57,278.31,817.88,278.31z"></path> <path class="st0" d="M949.93,324.09c1.29,0,2.73-0.16,4.18-0.64v14.62c-3.53,1.29-8.03,2.25-12.37,2.25 c-7.87,0-13.82-2.89-17.03-8.68c-7.55,5.94-16.39,9.48-27.79,9.48c-14.46,0-26.99-8.35-26.99-23.62c0-19.6,18.47-25.7,33.9-25.7 c6.1,0,12.85,0.8,18.31,2.09v-2.73c0-7.71-6.1-13.01-18.15-13.01c-10.6,0-20.08,2.89-27.31,5.78v-19.28 c6.27-2.09,17.99-5.14,29.88-5.14c23.13,0,37.91,9.48,37.91,34.86v24.58C944.47,322.97,947.04,324.09,949.93,324.09z M892.74,315.74c0,5.78,5.3,9.48,12.05,9.48c6.27,0,12.21-1.77,17.35-6.27V306.9c-3.37-0.8-8.51-1.77-13.17-1.77 C900.77,305.14,892.74,307.87,892.74,315.74z"></path> <path class="st0" d="M991.37,340.96c-12.05,0-22.33-2.57-29.4-6.27v-17.83c5.78,3.21,17.03,6.59,26.51,6.59 c10.44,0,17.99-2.09,17.99-8.68c0-6.75-7.23-7.55-14.78-7.55h-14.3v-14.78h14.3c7.71,0,13.17-1.93,13.17-7.23 c0-5.14-5.14-8.19-15.1-8.19c-9,0-20.24,3.21-26.35,6.43v-17.67c7.23-3.86,18.31-6.43,29.08-6.43 c26.67,0,35.18,11.73,35.18,22.97c0,9.16-5.78,14.94-13.01,16.87c9,2.73,14.62,9.16,14.62,18.31 C1029.29,329.56,1017.88,340.96,991.37,340.96z"></path> <path class="st0" d="M1082.46,259.51c22.49,0,42.57,13.82,42.57,40.8c0,26.99-20.08,40.8-42.57,40.8 c-22.33,0-42.57-13.82-42.57-40.8C1039.89,273.33,1060.13,259.51,1082.46,259.51z M1082.46,279.43c-12.69,0-19.76,9-19.76,20.88 c0,11.89,7.07,20.88,19.76,20.88c12.85,0,19.92-9,19.92-20.88C1102.38,288.43,1095.31,279.43,1082.46,279.43z"></path> <path class="st0" d="M1139.64,338.87v-77.11h45.95c18.31,0,25.38,9.96,25.38,20.4c0,8.84-4.34,14.78-11.89,17.67 c8.35,2.73,13.65,8.84,13.65,18.15c0,10.92-6.43,20.88-25.86,20.88H1139.64z M1161.81,293.41h17.03c5.3,0,9.64-2.09,9.64-8.03 c0-6.43-4.66-8.35-9.8-8.35h-16.87V293.41z M1161.97,323.61h18.31c5.62,0,10.28-2.09,10.28-8.19c0-6.59-4.82-8.51-10.28-8.51 h-18.31V323.61z"></path> <path class="st0" d="M1302.22,324.09c1.29,0,2.73-0.16,4.18-0.64v14.62c-3.53,1.29-8.03,2.25-12.37,2.25 c-7.87,0-13.82-2.89-17.03-8.68c-7.55,5.94-16.39,9.48-27.79,9.48c-14.46,0-26.99-8.35-26.99-23.62c0-19.6,18.47-25.7,33.9-25.7 c6.1,0,12.85,0.8,18.31,2.09v-2.73c0-7.71-6.1-13.01-18.15-13.01c-10.6,0-20.08,2.89-27.31,5.78v-19.28 c6.27-2.09,17.99-5.14,29.88-5.14c23.13,0,37.91,9.48,37.91,34.86v24.58C1296.76,322.97,1299.33,324.09,1302.22,324.09z M1245.03,315.74c0,5.78,5.3,9.48,12.05,9.48c6.27,0,12.21-1.77,17.35-6.27V306.9c-3.37-0.8-8.51-1.77-13.17-1.77 C1253.06,305.14,1245.03,307.87,1245.03,315.74z"></path> <path class="st0" d="M1333.06,338.87v-58.31h-24.58v-18.8h71.33v18.8h-24.58v58.31H1333.06z"></path> <path class="st0" d="M1425.11,259.51c31.97,0,42.25,25.22,37.11,48.03h-54.3c2.57,11.25,14.46,15.91,27.15,15.91 c8.84,0,16.71-1.77,23.29-4.66v17.51c-7.23,3.05-16.71,4.82-28.27,4.82c-24.42,0-44.66-13.98-44.66-40.8 C1385.43,271.24,1407.76,259.51,1425.11,259.51z M1425.91,276.54c-9.48,0-17.83,5.94-18.15,16.55h34.38 C1442.94,287.79,1439.89,276.54,1425.91,276.54z"></path> <path class="st0" d="M1482.14,340.48c-3.53,0-7.71-0.64-12.21-2.25v-17.67c1.61,0.64,3.21,0.96,4.66,0.96 c12.21,0,14.94-25.22,16.39-59.76h62.65v77.11h-22.33v-59.44h-19.76C1509.29,314.13,1503.34,340.48,1482.14,340.48z"></path> <path class="st0" d="M1572.58,338.87v-77.11h22.33v24.1h17.83c20.24,0,31.17,11.73,31.17,26.51s-10.92,26.51-31.17,26.51H1572.58 z M1594.75,322.81h12.53c8.84,0,13.65-3.86,13.65-10.44c0-6.59-4.82-10.44-13.65-10.44h-12.53V322.81z"></path> <path class="st0" d="M1656.91,338.87v-77.11h22.33V291h31.17v-29.24h22.33v77.11h-22.33v-29.24h-31.17v29.24H1656.91z"></path> <path class="st0" d="M1826.07,324.09c1.29,0,2.73-0.16,4.18-0.64v14.62c-3.53,1.29-8.03,2.25-12.37,2.25 c-7.87,0-13.82-2.89-17.03-8.68c-7.55,5.94-16.39,9.48-27.79,9.48c-14.46,0-26.99-8.35-26.99-23.62c0-19.6,18.47-25.7,33.9-25.7 c6.1,0,12.85,0.8,18.31,2.09v-2.73c0-7.71-6.1-13.01-18.15-13.01c-10.6,0-20.08,2.89-27.31,5.78v-19.28 c6.27-2.09,17.99-5.14,29.88-5.14c23.13,0,37.91,9.48,37.91,34.86v24.58C1820.61,322.97,1823.18,324.09,1826.07,324.09z M1768.88,315.74c0,5.78,5.3,9.48,12.05,9.48c6.27,0,12.21-1.77,17.35-6.27V306.9c-3.37-0.8-8.51-1.77-13.17-1.77 C1776.91,305.14,1768.88,307.87,1768.88,315.74z"></path> <path class="st0" d="M1835.39,338.87l20.24-25.86c-10.44-4.5-15.74-13.82-15.74-24.26c0-14.46,10.6-26.99,30.84-26.99h41.77 v77.11h-22.33V315.9h-12.53l-17.19,22.97H1835.39z M1875.23,299.19h14.94v-19.76h-14.94c-8.03,0-12.69,3.53-12.69,9.96 C1862.53,295.66,1867.19,299.19,1875.23,299.19z"></path> <path class="st0" d="M553.46,510.58V398.13h24.1v44.66h18.15l28.43-44.66h26.83l-36.47,54.78l38.56,57.67H626.4l-30.68-45.95 h-18.15v45.95H553.46z"></path> <path class="st0" d="M693.87,431.22c22.49,0,42.57,13.82,42.57,40.8c0,26.99-20.08,40.8-42.57,40.8 c-22.33,0-42.57-13.82-42.57-40.8C651.3,445.04,671.54,431.22,693.87,431.22z M693.87,451.14c-12.69,0-19.76,9-19.76,20.88 c0,11.89,7.07,20.88,19.76,20.88c12.85,0,19.92-9,19.92-20.88C713.79,460.14,706.72,451.14,693.87,451.14z"></path> <path class="st0" d="M798.77,431.22c24.42,0,37.59,19.76,37.59,40.8c0,21.04-13.17,40.8-37.59,40.8 c-12.21,0-20.4-4.98-25.38-10.44v43.54h-22.33V433.47h19.76v11.24C775.63,437.81,784.47,431.22,798.77,431.22z M793.31,450.02 c-9.8,0-17.03,6.1-20.08,12.85v18.31c3.05,6.75,10.28,12.85,20.08,12.85c12.69,0,20.24-9.96,20.24-22.01 S806,450.02,793.31,450.02z"></path> <path class="st0" d="M850.97,510.58v-77.11h75.83v77.11h-22.33v-58.32H873.3v58.32H850.97z"></path> <path class="st0" d="M983.99,431.22c22.49,0,42.57,13.82,42.57,40.8c0,26.99-20.08,40.8-42.57,40.8 c-22.33,0-42.57-13.82-42.57-40.8C941.42,445.04,961.66,431.22,983.99,431.22z M983.99,451.14c-12.69,0-19.76,9-19.76,20.88 c0,11.89,7.07,20.88,19.76,20.88c12.85,0,19.92-9,19.92-20.88C1003.91,460.14,996.84,451.14,983.99,451.14z"></path> <path class="st0" d="M1088.89,431.22c24.42,0,37.59,19.76,37.59,40.8c0,21.04-13.17,40.8-37.59,40.8 c-12.21,0-20.4-4.98-25.38-10.44v43.54h-22.33V433.47h19.76v11.24C1065.75,437.81,1074.59,431.22,1088.89,431.22z M1083.42,450.02c-9.8,0-17.03,6.1-20.08,12.85v18.31c3.05,6.75,10.28,12.85,20.08,12.85c12.69,0,20.24-9.96,20.24-22.01 S1096.12,450.02,1083.42,450.02z"></path> <path class="st0" d="M1215.47,495.8c1.29,0,2.73-0.16,4.18-0.64v14.62c-3.53,1.29-8.03,2.25-12.37,2.25 c-7.87,0-13.82-2.89-17.03-8.68c-7.55,5.94-16.39,9.48-27.79,9.48c-14.46,0-26.99-8.35-26.99-23.62c0-19.6,18.47-25.7,33.9-25.7 c6.1,0,12.85,0.8,18.31,2.09v-2.73c0-7.71-6.1-13.01-18.15-13.01c-10.6,0-20.08,2.89-27.31,5.78v-19.28 c6.27-2.09,17.99-5.14,29.88-5.14c23.13,0,37.91,9.48,37.91,34.86v24.58C1210.01,494.68,1212.58,495.8,1215.47,495.8z M1158.28,487.45c0,5.78,5.3,9.48,12.05,9.48c6.27,0,12.21-1.77,17.35-6.27v-12.05c-3.37-0.8-8.51-1.77-13.17-1.77 C1166.32,476.85,1158.28,479.58,1158.28,487.45z"></path> <path class="st0" d="M1297.56,530.99v-20.4h-66.03v-77.11h22.33v58.31h30.36v-58.31h22.33v58.8h11.57v38.72H1297.56z"></path> <path class="st0" d="M1332.09,510.58v-77.11h22.33v43.37l34.38-43.37h19.28v77.11h-22.17v-43.38l-34.38,43.38H1332.09z"></path> <path class="st0" d="M1420.29,510.58l20.24-25.86c-10.44-4.5-15.74-13.82-15.74-24.26c0-14.46,10.6-26.99,30.84-26.99h41.77 v77.11h-22.33v-22.97h-12.53l-17.19,22.97H1420.29z M1460.13,470.9h14.94v-19.76h-14.94c-8.03,0-12.69,3.53-12.69,9.96 C1447.44,467.37,1452.09,470.9,1460.13,470.9z"></path> </g> </g> </g> </svg> 